<svg xmlns="http://www.w3.org/2000/svg" viewBox="0 0 64 64"><defs><linearGradient id="g" x1="0" y1="0" x2="1" y2="1"><stop offset="0" stop-color="#0a86eb"/><stop offset="1" stop-color="#39c0fa"/></linearGradient></defs><rect width="64" height="64" rx="14" fill="url(#g)"/><path fill="#fff" d="M44 22c-3 0-5 1.2-7 2.4-1.8 1-3.4 1.6-5 1.6s-3.2-.6-5-1.6C25 23.2 23 22 20 22c-5 0-8 4.4-8 11 0 6.4 4 16 9 16 2.2 0 3.4-1.6 5-4.4 1.4-2.4 3-4.6 6-4.6s4.6 2.2 6 4.6C39.6 47.4 40.8 49 43 49c5 0 9-9.6 9-16 0-6.6-3-11-8-11z"/></svg>
